<?xml version="1.0" encoding="utf-8"?>
<!-- Generator: Adobe Illustrator 25.0.0, SVG Export Plug-In . SVG Version: 6.00 Build 0)  -->
<svg version="1.1" id="레이어_1" xmlns="http://www.w3.org/2000/svg" xmlns:xlink="http://www.w3.org/1999/xlink" x="0px"
	 y="0px" viewBox="0 0 2000 2000" style="enable-background:new 0 0 2000 2000;" xml:space="preserve">
<style type="text/css">
	.st0{fill:#F4D823;}
</style>
<g>
	<polygon class="st0" points="81.43,1093.32 164.73,1175.61 164.73,1011.04 	"/>
	<g>
		<path d="M958.54,1072.7L846.9,961.06l336.02-336.02l-56.37-56.37L902.17,793.05c-31.01,31.01-68.23,46.34-111.64,45.97
			c-43.78,0-81.17-15.5-112.19-46.52l-55.82-55.82C591.51,705.67,576,668.27,576,624.49c0-43.78,15.32-80.99,45.97-111.64
			l336.57-336.57l54.73-54.73l112.19,112.19l-54.73,54.73L788.89,570.31l55.82,55.82l169.65-169.65l54.73-54.73
			c31.01-31.01,68.6-46.33,112.74-45.97c43.78,0,80.99,15.32,111.64,45.97l56.37,56.37c31.01,31.01,46.34,68.23,45.97,111.64
			c0,43.78-15.51,81.18-46.52,112.19l-54.73,54.73L958.54,1072.7z M958.54,1050.81l325.07-325.07
			c28.09-28.09,42.14-61.84,42.14-101.24c0.37-39.03-13.49-72.6-41.59-100.7l-56.37-56.37c-27.72-27.72-61.29-41.59-100.7-41.59
			c-39.76-0.36-73.7,13.5-101.79,41.59L789.98,702.75l-77.71-77.71l336.57-336.57l-90.3-90.3L632.92,523.79
			c-27.73,27.73-41.59,61.29-41.59,100.7c0,39.4,14.05,73.15,42.14,101.24l55.82,55.82c28.1,28.1,61.84,42.14,101.24,42.14
			c39.04,0.37,72.6-13.49,100.7-41.59l235.32-235.32l78.26,78.26L868.79,961.06L958.54,1050.81z"/>
		<path d="M1658.87,1325.37c-61.66,61.66-136.27,92.49-223.83,92.49s-162.17-30.83-223.83-92.49
			c-62.02-62.02-93.03-136.82-93.03-224.38s30.83-162.17,92.49-223.83l112.19-112.19l54.73-54.73l112.19,112.19l-54.73,54.73
			l-57.46,57.46c-31.01,31.01-46.34,68.23-45.97,111.64c-0.37,44.15,14.96,81.73,45.97,112.74c31.01,31.01,68.41,46.16,112.19,45.42
			c30.28,0.37,57.46-6.74,81.54-21.34c14.6-24.07,21.89-51.44,21.89-82.09c0.37-43.41-14.96-80.63-45.97-111.64l112.19-112.19
			l54.73-54.73l223.83,223.83l-54.73,54.73l-112.19,112.19c-0.74,0.74-1.64,1.64-2.74,2.74l-54.73,54.73L1658.87,1325.37z
			 M1647.93,1314.43c39.76-39.76,66.22-84.45,79.35-134.08l6.57-26.27l37.21,37.21l90.3-90.3l-201.94-201.94l-90.85,90.85
			c27,32.11,40.31,69.14,39.95,111.09c0.37,48.53-16.42,89.75-50.35,123.68c-33.93,33.93-74.97,50.54-123.13,49.8
			c-48.16,0.73-89.2-15.87-123.13-49.8c-33.93-33.93-50.72-75.15-50.35-123.68c-0.37-47.79,16.42-88.66,50.35-122.59l101.24-101.24
			l-90.3-90.3l-101.24,101.24c-58.75,58.75-88.11,129.7-88.11,212.89c0,83.18,29.55,154.33,88.66,213.43
			c58.75,58.75,129.7,88.11,212.89,88.11S1589.18,1373.17,1647.93,1314.43z"/>
		<g>
			<path d="M493.84,1340.38l246.27-246.27l-78.26-78.26l-246.27,246.27L493.84,1340.38z M492.2,1207.4l169.65-169.65l56.37,56.37
				l-169.65,169.65L492.2,1207.4z"/>
			<path d="M868.79,961.06l24.8-24.8c-2.68-3.08-5.49-6.1-8.46-9.06l-56.37-56.37c-20.43-20.43-43.96-34.11-70.6-41.04
				c-0.9-3.46-1.93-6.88-3.06-10.24c-24.6-6.05-46.54-18.71-65.82-37.99l-55.82-55.82c-18.41-18.41-30.78-39.25-37.13-62.51
				c-14.98-4.61-30.9-6.92-47.77-6.92c-43.78,0-81.18,15.51-112.19,46.52l-54.73,54.73L45.63,1093.56l448.21,448.21l336.02-336.02
				l54.73-54.73c31.01-31.01,46.52-68.41,46.52-112.19c0.05-5.45-0.16-10.81-0.61-16.07L868.79,961.06z M650.91,824.31
				c18.97,18.97,31.56,40.32,37.76,64.03l2.19,8.76l8.76,2.19c23.72,6.21,44.88,18.61,63.48,37.21l56.37,56.37
				c28.1,28.1,41.96,61.66,41.59,100.7c0,39.4-14.05,73.15-42.14,101.24l-325.07,325.07L67.52,1093.56L392.6,768.49
				c28.09-28.09,61.84-42.14,101.24-42.14c39.4,0,73.15,14.05,101.24,42.14L650.91,824.31z"/>
			<path d="M325.28,1171.82l246.27-246.27l-77.71-77.71l-246.27,246.27L325.28,1171.82z M324.19,1039.39l169.65-169.65l55.82,55.82
				l-169.65,169.65L324.19,1039.39z"/>
		</g>
		<path d="M1222.16,1314.43c-1.78-1.78-3.52-3.56-5.25-5.36l-29.68,29.68l-112.19,112.19c31.01,31.01,46.34,68.23,45.97,111.64
			c0,30.65-7.29,58.02-21.89,82.09c-24.08,14.61-51.26,21.71-81.54,21.34c-43.78,0.73-81.17-14.41-112.19-45.42
			c-31.01-31.01-46.34-68.59-45.97-112.74c-0.37-43.41,14.96-80.63,45.97-111.64l57.46-57.46l54.73-54.73l-112.19-112.19
			l-54.73,54.73l-112.19,112.19c-61.66,61.66-92.49,136.27-92.49,223.83s31.01,162.36,93.03,224.38
			c61.66,61.66,136.27,92.49,223.83,92.49c87.56,0,162.17-30.83,223.83-92.49l54.73-54.73l54.73-54.73c1.09-1.09,2-2,2.74-2.74
			l112.19-112.19l54.73-54.73l-117.12-117.12C1301.59,1377.1,1259.41,1351.68,1222.16,1314.43z M1389.17,1562.58l-90.3,90.3
			l-37.21-37.21l-6.57,26.27c-13.13,49.63-39.59,94.32-79.35,134.08c-58.75,58.75-129.7,88.11-212.88,88.11
			c-83.18,0-154.14-29.36-212.89-88.11c-59.1-59.1-88.66-130.25-88.66-213.43c0-83.18,29.36-154.14,88.11-212.89l101.24-101.24
			l90.3,90.3l-101.24,101.24c-33.93,33.93-50.72,74.79-50.35,122.59c-0.37,48.53,16.42,89.75,50.35,123.68
			c33.93,33.93,74.97,50.54,123.13,49.8c48.16,0.74,89.2-15.87,123.13-49.8c33.93-33.93,50.72-75.15,50.35-123.68
			c0.36-41.95-12.96-78.99-39.95-111.09l90.85-90.85L1389.17,1562.58z"/>
	</g>
</g>
</svg>
